#define and_width 40
#define and_height 40
static unsigned char and_bits[] = {
   0x00, 0x00, 0x00, 0x00, 0x00, 0x00, 0x00, 0x00, 0x00, 0x00, 0x00, 0x00,
   0x00, 0x00, 0x00, 0x00, 0x00, 0x00, 0x00, 0x00, 0x00, 0x00, 0x00, 0x00,
   0x00, 0x00, 0x00, 0x00, 0x00, 0x00, 0x00, 0x00, 0x00, 0x00, 0x00, 0x00,
   0x00, 0x00, 0x00, 0x00, 0x00, 0x00, 0x00, 0x00, 0x00, 0x00, 0x00, 0x00,
   0x00, 0x00, 0x00, 0x00, 0x18, 0x00, 0x00, 0x00, 0x00, 0x18, 0x00, 0x00,
   0x00, 0x00, 0x3c, 0x00, 0x00, 0x00, 0x00, 0x24, 0x00, 0x00, 0x00, 0x00,
   0x22, 0x00, 0x00, 0x00, 0x00, 0x42, 0x00, 0x00, 0x00, 0x00, 0x43, 0x00,
   0x00, 0x00, 0x00, 0xc1, 0x00, 0x00, 0x00, 0x00, 0x81, 0x00, 0x00, 0x00,
   0x80, 0x80, 0x01, 0x00, 0x00, 0x80, 0x00, 0x01, 0x00, 0x00, 0xc0, 0x00,
   0x01, 0x00, 0x00, 0x40, 0x00, 0x02, 0x00, 0x00, 0x20, 0x00, 0x02, 0x00,
   0x00, 0x20, 0x00, 0x04, 0x00, 0x00, 0x20, 0x00, 0x04, 0x00, 0x00, 0x10,
   0x00, 0x04, 0x00, 0x00, 0x10, 0x00, 0x08, 0x00, 0x00, 0x08, 0x00, 0x08,
   0x00, 0x00, 0x08, 0x00, 0x10, 0x00, 0x00, 0x0c, 0x00, 0x10, 0x00, 0x00,
   0x04, 0x00, 0x20, 0x00, 0x00, 0x04, 0x00, 0x20, 0x00, 0x00, 0x02, 0x00,
   0x40, 0x00, 0x00, 0x02, 0x00, 0x40, 0x00, 0x00, 0x01, 0x00, 0x40, 0x00,
   0x00, 0x01, 0x00, 0x80, 0x00, 0x00, 0x00, 0x00, 0x00, 0x00, 0x00, 0x00,
   0x00, 0x00, 0x00, 0x00, 0x00, 0x00, 0x00, 0x00 };
