#define not_width 40
#define not_height 40
static unsigned char not_bits[] = {
   0x00, 0x00, 0x00, 0x00, 0x00, 0x00, 0x00, 0x00, 0x00, 0x00, 0x06, 0x00,
   0x00, 0x00, 0x00, 0x0f, 0x00, 0x00, 0x00, 0x00, 0x3f, 0x00, 0x00, 0x00,
   0x00, 0xfe, 0x00, 0x00, 0x00, 0x00, 0xe7, 0x03, 0x00, 0x00, 0x00, 0x06,
   0x0f, 0x00, 0x00, 0x00, 0x03, 0x3e, 0x00, 0x00, 0x00, 0x07, 0xf8, 0x00,
   0x00, 0x00, 0x06, 0xe0, 0x03, 0x00, 0x00, 0x06, 0x80, 0x0f, 0x00, 0x00,
   0x07, 0x00, 0x3e, 0x00, 0x00, 0x06, 0x00, 0xf8, 0x00, 0x00, 0x03, 0x00,
   0xe0, 0x03, 0x00, 0x07, 0x00, 0x80, 0x0f, 0x00, 0x06, 0x00, 0x00, 0x3e,
   0x78, 0x06, 0x00, 0x00, 0xf8, 0xfe, 0x07, 0x00, 0x00, 0xe0, 0xef, 0x07,
   0x00, 0x00, 0xc0, 0xc7, 0x03, 0x00, 0x00, 0xe0, 0xc7, 0x06, 0x00, 0x00,
   0x78, 0xff, 0x07, 0x00, 0x00, 0x3e, 0xfe, 0x06, 0x00, 0x80, 0x0f, 0x38,
   0x03, 0x00, 0xe0, 0x03, 0x00, 0x07, 0x00, 0xf0, 0x00, 0x00, 0x02, 0x00,
   0x3e, 0x00, 0x00, 0x07, 0x00, 0x1f, 0x00, 0x00, 0x03, 0xc0, 0x03, 0x00,
   0x00, 0x07, 0xf0, 0x01, 0x00, 0x00, 0x02, 0x7c, 0x00, 0x00, 0x00, 0x07,
   0x1f, 0x00, 0x00, 0x00, 0xc3, 0x07, 0x00, 0x00, 0x00, 0xe7, 0x01, 0x00,
   0x00, 0x00, 0x7e, 0x00, 0x00, 0x00, 0x00, 0x1f, 0x00, 0x00, 0x00, 0x00,
   0x0f, 0x00, 0x00, 0x00, 0x00, 0x02, 0x00, 0x00, 0x00, 0x00, 0x00, 0x00,
   0x00, 0x00, 0x00, 0x00, 0x00, 0x00, 0x00, 0x00 };
