#define off_or_width 40
#define off_or_height 40
static unsigned char off_or_bits[] = {
   0x00, 0x00, 0x00, 0x00, 0x00, 0x00, 0x00, 0x00, 0x00, 0x00, 0x00, 0x00,
   0x00, 0x00, 0x00, 0x00, 0x00, 0x00, 0x00, 0x00, 0x00, 0x00, 0x00, 0x00,
   0x00, 0x00, 0x00, 0x00, 0x00, 0x00, 0x00, 0x01, 0x00, 0x00, 0x00, 0x00,
   0x01, 0x00, 0xc0, 0x00, 0x80, 0x03, 0x00, 0xc0, 0x00, 0x00, 0x03, 0x00,
   0xe0, 0x00, 0x00, 0x06, 0x00, 0x60, 0x00, 0x00, 0x06, 0x00, 0x60, 0x00,
   0x00, 0x0e, 0x00, 0x30, 0x00, 0x00, 0x0c, 0x00, 0x30, 0x00, 0x00, 0x0c,
   0x00, 0x18, 0x00, 0x00, 0x18, 0x00, 0x18, 0x00, 0x00, 0x18, 0x00, 0x0c,
   0x00, 0x00, 0x30, 0x00, 0x0c, 0x00, 0x00, 0x30, 0x00, 0x06, 0x00, 0x00,
   0x70, 0x00, 0x06, 0x00, 0x00, 0x60, 0x00, 0x06, 0x00, 0x00, 0xc0, 0x00,
   0x03, 0x00, 0x00, 0xc0, 0x00, 0x03, 0x00, 0x00, 0xc0, 0x80, 0x01, 0x00,
   0x00, 0x80, 0x81, 0x01, 0x00, 0x00, 0x80, 0xc1, 0x01, 0x00, 0x00, 0x00,
   0xc3, 0x00, 0x00, 0x00, 0x00, 0xc3, 0x00, 0x00, 0x00, 0x00, 0x63, 0x00,
   0x00, 0x00, 0x00, 0x66, 0x00, 0x00, 0x00, 0x00, 0x3e, 0x00, 0x00, 0x00,
   0x00, 0x3c, 0x00, 0x00, 0x00, 0x00, 0x3c, 0x00, 0x00, 0x00, 0x00, 0x18,
   0x00, 0x00, 0x00, 0x00, 0x08, 0x00, 0x00, 0x00, 0x00, 0x00, 0x00, 0x00,
   0x00, 0x00, 0x00, 0x00, 0x00, 0x00, 0x00, 0x00, 0x00, 0x00, 0x00, 0x00,
   0x00, 0x00, 0x00, 0x00, 0x00, 0x00, 0x00, 0x00 };
